<svg width="169" height="26" viewBox="0 0 169 26" fill="none" xmlns="http://www.w3.org/2000/svg">
<path d="M15.488 25.16L13.92 18.92H6.272L4.576 25L0.48 24.68L3.296 16.904L7.584 3.144L13.312 2.728L17.44 16.424L20.096 24.456L15.488 25.16ZM10.432 6.888H10.016L7.264 15.528H12.96L10.432 6.888ZM27.2505 22.024C28.3598 22.024 28.9145 21.5333 28.9145 20.552C28.9145 20.2107 28.6692 19.8907 28.1785 19.592C27.7092 19.2933 27.1225 18.9947 26.4185 18.696C25.7358 18.3973 25.0425 18.0667 24.3385 17.704C23.6558 17.32 23.0692 16.7973 22.5785 16.136C22.1092 15.4747 21.8745 14.7173 21.8745 13.864C21.8745 12.4347 22.5038 11.1867 23.7625 10.12C25.0212 9.05333 26.4718 8.52 28.1145 8.52C28.8825 8.52 29.6292 8.616 30.3545 8.808C31.1012 8.97867 31.8158 9.256 32.4985 9.64L30.3545 13.544C30.2052 13.416 30.0132 13.256 29.7785 13.064C29.5438 12.872 29.0958 12.6267 28.4345 12.328C27.7945 12.008 27.2185 11.848 26.7065 11.848C26.2158 11.848 25.8318 11.9653 25.5545 12.2C25.2985 12.4133 25.1705 12.7227 25.1705 13.128C25.1705 13.512 25.5332 13.9067 26.2585 14.312C27.0052 14.696 27.8158 15.0587 28.6905 15.4C29.5652 15.72 30.3652 16.264 31.0905 17.032C31.8372 17.7787 32.2105 18.6747 32.2105 19.72C32.2105 21.2133 31.5918 22.5253 30.3545 23.656C29.1385 24.7867 27.7305 25.352 26.1305 25.352C25.1065 25.352 24.1465 25.128 23.2505 24.68C22.3758 24.232 21.7465 23.784 21.3625 23.336L20.7865 22.664L23.3145 19.72C23.4425 19.8907 23.6238 20.104 23.8585 20.36C24.0932 20.616 24.5518 20.9573 25.2345 21.384C25.9385 21.8107 26.6105 22.024 27.2505 22.024ZM38.2123 25C36.9536 25 35.9189 24.6053 35.1083 23.816C34.3189 23.0053 33.9243 21.928 33.9243 20.584C33.9243 19.2187 34.5429 18.0453 35.7803 17.064C37.0176 16.0613 38.5216 15.56 40.2923 15.56H42.4683V15.016C42.4683 13.9707 42.2549 13.256 41.8283 12.872C41.4016 12.488 40.6016 12.296 39.4283 12.296C38.9376 12.296 38.3509 12.4027 37.6683 12.616C37.0069 12.808 36.2603 13.1173 35.4283 13.544L34.5003 11.016C35.4176 10.376 36.5269 9.8 37.8283 9.288C39.1509 8.776 40.2389 8.52 41.0923 8.52C44.4416 8.52 46.1163 10.1413 46.1163 13.384V19.656C46.1163 20.8507 46.4896 22.184 47.2363 23.656L43.8443 25.096C43.3109 24.072 42.9163 23.1547 42.6603 22.344C41.4869 24.1147 40.0043 25 38.2123 25ZM39.5563 21.736C40.4096 21.736 41.3803 21.2987 42.4683 20.424V18.28C41.3376 18.024 40.4203 17.896 39.7163 17.896C38.3723 17.896 37.7003 18.4933 37.7003 19.688C37.7003 20.3067 37.8709 20.808 38.2123 21.192C38.5536 21.5547 39.0016 21.736 39.5563 21.736ZM54.3963 0.231998L53.9803 16.68L54.3323 24.2L50.0123 25L50.3963 17.224L50.0123 1.032L54.3963 0.231998ZM61.306 25C60.0473 25 59.0127 24.6053 58.202 23.816C57.4127 23.0053 57.018 21.928 57.018 20.584C57.018 19.2187 57.6367 18.0453 58.874 17.064C60.1113 16.0613 61.6153 15.56 63.386 15.56H65.562V15.016C65.562 13.9707 65.3487 13.256 64.922 12.872C64.4953 12.488 63.6953 12.296 62.522 12.296C62.0313 12.296 61.4447 12.4027 60.762 12.616C60.1007 12.808 59.354 13.1173 58.522 13.544L57.594 11.016C58.5113 10.376 59.6207 9.8 60.922 9.288C62.2447 8.776 63.3327 8.52 64.186 8.52C67.5353 8.52 69.21 10.1413 69.21 13.384V19.656C69.21 20.8507 69.5833 22.184 70.33 23.656L66.938 25.096C66.4047 24.072 66.01 23.1547 65.754 22.344C64.5807 24.1147 63.098 25 61.306 25ZM62.65 21.736C63.5033 21.736 64.474 21.2987 65.562 20.424V18.28C64.4313 18.024 63.514 17.896 62.81 17.896C61.466 17.896 60.794 18.4933 60.794 19.688C60.794 20.3067 60.9647 20.808 61.306 21.192C61.6473 21.5547 62.0953 21.736 62.65 21.736ZM88.0275 15.016H88.3475L93.0195 2.856L97.4355 2.984L97.5635 16.744L98.1715 25H93.8515L94.0115 16.68L93.6595 8.264L89.8195 18.856L85.8835 19.048L82.2995 8.264L82.0115 16.68L82.2355 25H78.2675L78.7155 17.224L78.9075 3.496L83.9955 2.696L88.0275 15.016ZM106.238 8.712L105.854 16.68L106.206 24.2L101.918 25L102.302 17.224L101.95 9.512L106.238 8.712ZM101.726 4.04C101.726 3.31467 102.003 2.67467 102.558 2.12C103.112 1.544 103.752 1.256 104.478 1.256C105.203 1.256 105.758 1.45867 106.142 1.864C106.526 2.248 106.718 2.83467 106.718 3.624C106.718 4.41333 106.44 5.096 105.886 5.672C105.352 6.22667 104.723 6.504 103.998 6.504C103.294 6.504 102.739 6.26933 102.334 5.8C101.928 5.33067 101.726 4.744 101.726 4.04ZM109.41 9.544L113.282 8.712C113.474 10.3547 113.602 11.912 113.666 13.384C115.608 10.376 117.432 8.872 119.138 8.872L118.786 13.864C117.549 13.864 116.568 13.9813 115.842 14.216C115.138 14.4293 114.413 14.8667 113.666 15.528V16.68L114.018 24.2L109.73 25L110.114 17.224C110.029 14.3653 109.794 11.8053 109.41 9.544ZM124.369 25C123.11 25 122.075 24.6053 121.265 23.816C120.475 23.0053 120.081 21.928 120.081 20.584C120.081 19.2187 120.699 18.0453 121.937 17.064C123.174 16.0613 124.678 15.56 126.449 15.56H128.625V15.016C128.625 13.9707 128.411 13.256 127.985 12.872C127.558 12.488 126.758 12.296 125.585 12.296C125.094 12.296 124.507 12.4027 123.825 12.616C123.163 12.808 122.417 13.1173 121.585 13.544L120.657 11.016C121.574 10.376 122.683 9.8 123.985 9.288C125.307 8.776 126.395 8.52 127.249 8.52C130.598 8.52 132.273 10.1413 132.273 13.384V19.656C132.273 20.8507 132.646 22.184 133.393 23.656L130.001 25.096C129.467 24.072 129.073 23.1547 128.817 22.344C127.643 24.1147 126.161 25 124.369 25ZM125.713 21.736C126.566 21.736 127.537 21.2987 128.625 20.424V18.28C127.494 18.024 126.577 17.896 125.873 17.896C124.529 17.896 123.857 18.4933 123.857 19.688C123.857 20.3067 124.027 20.808 124.369 21.192C124.71 21.5547 125.158 21.736 125.713 21.736ZM141.673 12.68C140.734 12.68 140.009 13.0213 139.497 13.704C138.985 14.3653 138.729 15.3893 138.729 16.776C138.729 18.1627 138.985 19.2827 139.497 20.136C140.03 20.968 140.798 21.384 141.801 21.384C142.313 21.384 142.814 21.224 143.305 20.904C143.795 20.584 144.169 20.264 144.425 19.944L144.777 19.432L146.377 21.096C146.313 21.2027 146.227 21.352 146.121 21.544C146.035 21.736 145.801 22.0773 145.417 22.568C145.054 23.0587 144.659 23.496 144.233 23.88C143.827 24.2427 143.294 24.584 142.633 24.904C141.971 25.2027 141.278 25.352 140.553 25.352C138.953 25.352 137.651 24.7013 136.649 23.4C135.646 22.0987 135.145 20.4027 135.145 18.312C135.145 15.7093 135.902 13.4267 137.417 11.464C138.931 9.50133 140.702 8.52 142.729 8.52C143.347 8.52 143.966 8.616 144.585 8.808C145.203 8.97867 145.833 9.256 146.473 9.64L144.233 13.576C143.465 12.9787 142.611 12.68 141.673 12.68ZM152.865 0.231998L152.449 16.68L152.801 24.2L148.481 25L148.865 17.224L148.481 1.032L152.865 0.231998ZM162.335 21.736C162.953 21.736 163.604 21.576 164.287 21.256C164.969 20.936 165.503 20.616 165.887 20.296L166.463 19.816L167.935 21.608C167.721 21.9707 167.391 22.3867 166.943 22.856C166.495 23.3253 166.036 23.7307 165.567 24.072C165.119 24.392 164.511 24.6907 163.743 24.968C162.996 25.224 162.217 25.352 161.407 25.352C159.679 25.352 158.271 24.7013 157.183 23.4C156.095 22.0773 155.551 20.3813 155.551 18.312C155.551 15.7093 156.308 13.4267 157.823 11.464C159.337 9.50133 161.108 8.52 163.135 8.52C164.692 8.52 165.897 8.95733 166.751 9.832C167.625 10.7067 168.063 11.9333 168.063 13.512C168.063 14.4507 167.903 15.5173 167.583 16.712L166.943 17.384L158.943 18.12C159.305 20.5307 160.436 21.736 162.335 21.736ZM162.335 11.816C161.396 11.816 160.607 12.2 159.967 12.968C159.327 13.7147 158.953 14.6747 158.847 15.848L164.287 15.176C164.351 14.6853 164.383 14.28 164.383 13.96C164.383 12.5307 163.7 11.816 162.335 11.816Z" fill="black"/>
</svg>
